<svg width="20" height="20" viewBox="0 0 20 20" fill="none" xmlns="http://www.w3.org/2000/svg">
<path d="M7.33333 11.8C7.14444 11.8 6.98622 11.7376 6.85867 11.6128C6.73111 11.488 6.66711 11.3337 6.66667 11.15C6.66622 10.9663 6.73022 10.812 6.85867 10.6872C6.98711 10.5624 7.14533 10.5 7.33333 10.5C7.52133 10.5 7.67978 10.5624 7.80867 10.6872C7.93756 10.812 8.00133 10.9663 8 11.15C7.99867 11.3337 7.93467 11.4882 7.808 11.6134C7.68133 11.7387 7.52311 11.8009 7.33333 11.8ZM10 11.8C9.81111 11.8 9.65289 11.7376 9.52533 11.6128C9.39778 11.488 9.33378 11.3337 9.33333 11.15C9.33289 10.9663 9.39689 10.812 9.52533 10.6872C9.65378 10.5624 9.812 10.5 10 10.5C10.188 10.5 10.3464 10.5624 10.4753 10.6872C10.6042 10.812 10.668 10.9663 10.6667 11.15C10.6653 11.3337 10.6013 11.4882 10.4747 11.6134C10.348 11.7387 10.1898 11.8009 10 11.8ZM12.6667 11.8C12.4778 11.8 12.3196 11.7376 12.192 11.6128C12.0644 11.488 12.0004 11.3337 12 11.15C11.9996 10.9663 12.0636 10.812 12.192 10.6872C12.3204 10.5624 12.4787 10.5 12.6667 10.5C12.8547 10.5 13.0131 10.5624 13.142 10.6872C13.2709 10.812 13.3347 10.9663 13.3333 11.15C13.332 11.3337 13.268 11.4882 13.1413 11.6134C13.0147 11.7387 12.8564 11.8009 12.6667 11.8ZM5.33333 17C4.96667 17 4.65289 16.8728 4.392 16.6184C4.13111 16.3641 4.00044 16.0579 4 15.7V6.6C4 6.2425 4.13067 5.93657 4.392 5.6822C4.65333 5.42783 4.96711 5.30043 5.33333 5.3H6V4H7.33333V5.3H12.6667V4H14V5.3H14.6667C15.0333 5.3 15.3473 5.4274 15.6087 5.6822C15.87 5.937 16.0004 6.24293 16 6.6V15.7C16 16.0575 15.8696 16.3636 15.6087 16.6184C15.3478 16.8732 15.0338 17.0004 14.6667 17H5.33333ZM5.33333 15.7H14.6667V9.2H5.33333V15.7Z" fill="#7255A7"/>
</svg>
