<svg width="20" height="20" viewBox="0 0 20 20" fill="none" xmlns="http://www.w3.org/2000/svg">
<path d="M5.375 15C4.99687 15 4.67329 14.8618 4.40425 14.5854C4.13521 14.309 4.00046 13.9764 4 13.5875V12.175C4 11.9749 4.066 11.8072 4.198 11.6721C4.33 11.537 4.49317 11.4692 4.6875 11.4687C4.88183 11.4682 5.04523 11.536 5.17769 11.6721C5.31014 11.8082 5.37592 11.9758 5.375 12.175V13.5875H13.625V12.175C13.625 11.9749 13.691 11.8072 13.823 11.6721C13.955 11.537 14.1182 11.4692 14.3125 11.4687C14.5068 11.4682 14.6702 11.536 14.8027 11.6721C14.9351 11.8082 15.0009 11.9758 15 12.175V13.5875C15 13.9759 14.8655 14.3086 14.5964 14.5854C14.3274 14.8623 14.0036 15.0005 13.625 15H5.375ZM8.8125 6.41895L7.52343 7.74319C7.38593 7.88444 7.22277 7.95224 7.03393 7.94659C6.8451 7.94094 6.68171 7.86725 6.54375 7.72553C6.41771 7.58428 6.35171 7.41948 6.34575 7.23115C6.33979 7.04281 6.40579 6.87802 6.54375 6.73677L9.01875 4.19423C9.0875 4.12361 9.16197 4.0737 9.24218 4.04451C9.32239 4.01531 9.40833 4.00048 9.5 4.00001C9.59166 3.99954 9.6776 4.01437 9.75781 4.04451C9.83802 4.07464 9.91249 4.12455 9.98124 4.19423L12.4562 6.73677C12.5937 6.87802 12.6597 7.04281 12.6542 7.23115C12.6487 7.41948 12.5827 7.58428 12.4562 7.72553C12.3187 7.86678 12.1556 7.94047 11.9667 7.94659C11.7779 7.95271 11.6145 7.88491 11.4766 7.74319L10.1875 6.41895V11.4687C10.1875 11.6688 10.1215 11.8367 9.98949 11.9723C9.85749 12.1079 9.69433 12.1754 9.5 12.175C9.30566 12.1745 9.1425 12.1067 9.0105 11.9716C8.8785 11.8364 8.8125 11.6688 8.8125 11.4687V6.41895Z" fill="#7255A7"/>
</svg>
