<svg width="20" height="20" viewBox="0 0 20 20" fill="none" xmlns="http://www.w3.org/2000/svg">
<path d="M3.99674 16H15.0033C16.3323 16 17 15.3223 17 13.9796V6.02044C17 4.67774 16.3323 4 15.0033 4H3.99674C2.67417 4.00028 2 4.67163 2 6.02044V13.9798C2 15.3289 2.67417 16 3.99674 16ZM3.02387 6.07328C3.02387 5.39526 3.37982 5.04985 4.01574 5.04985H9.05182V7.73552H3.0236L3.02387 6.07328ZM9.94818 7.73552V5.04985H14.9843C15.6137 5.04985 15.9761 5.39526 15.9761 6.07328V7.73552H9.94818ZM9.94818 11.3465V8.65438H15.9761V11.3465H9.94818ZM9.05182 8.65438V11.3465H3.0236V8.65438H9.05182ZM14.9843 14.9504H9.94818V12.2653H15.9761V13.9273C15.9761 14.6053 15.6137 14.9504 14.9843 14.9504ZM4.01574 14.9507C3.37982 14.9507 3.02387 14.6056 3.02387 13.9276V12.2653H9.05182V14.951L4.01574 14.9507Z" fill="#7255A7"/>
</svg>
