<svg width="20" height="20" viewBox="0 0 20 20" fill="none" xmlns="http://www.w3.org/2000/svg">
<path d="M3 9.51155C3 8.33393 3.29441 7.2429 3.87744 6.24423C4.46048 5.24556 5.25133 4.45471 6.25 3.87167C7.24867 3.28863 8.33393 3 9.50577 3C10.3832 3 11.226 3.17318 12.0284 3.51377C12.8308 3.85435 13.5178 4.32194 14.1008 4.8992C14.6838 5.47647 15.1456 6.16918 15.4862 6.97735C15.8268 7.78552 16 8.62256 16 9.51155C16 10.389 15.8268 11.2318 15.4862 12.0342C15.1456 12.8366 14.6781 13.5293 14.1008 14.1066C13.5235 14.6838 12.8308 15.1456 12.0284 15.4862C11.226 15.8268 10.389 16 9.50577 16C8.62256 16 7.77398 15.8268 6.97158 15.4862C6.16918 15.1456 5.47647 14.6781 4.89343 14.1008C4.31039 13.5235 3.85435 12.8308 3.50799 12.0342C3.16163 11.2376 3 10.3948 3 9.51155ZM4.43162 9.51155C4.43162 10.8797 4.92806 12.0688 5.92673 13.079C6.9254 14.0777 8.11456 14.5742 9.50577 14.5742C10.4179 14.5742 11.2664 14.349 12.04 13.893C12.8135 13.4369 13.4369 12.825 13.893 12.0457C14.349 11.2664 14.5799 10.4236 14.5799 9.51155C14.5799 8.59947 14.349 7.75089 13.893 6.97158C13.4369 6.19227 12.8193 5.5746 12.04 5.11856C11.2607 4.66252 10.4179 4.43739 9.50577 4.43739C8.59369 4.43739 7.74512 4.66252 6.97158 5.11856C6.19805 5.5746 5.5746 6.19227 5.11279 6.97158C4.65098 7.75089 4.43162 8.59947 4.43162 9.51155ZM6.71181 10.718C6.74645 10.591 6.82149 10.4929 6.93117 10.4236L9.00355 9.21714V5.66696C9.00355 5.53419 9.04973 5.41874 9.1421 5.32638C9.23446 5.23401 9.34991 5.18783 9.48268 5.18783C9.61545 5.18783 9.73091 5.23401 9.82327 5.32638C9.91563 5.41874 9.96181 5.53419 9.96181 5.66696V9.51732C9.96181 9.627 9.92718 9.71936 9.86368 9.80595C9.80018 9.89254 9.71936 9.94449 9.62123 9.97336L7.40453 11.2607C7.33526 11.3068 7.26021 11.3299 7.16785 11.3299C6.98313 11.3299 6.84458 11.2491 6.75222 11.0875C6.69366 10.9735 6.67927 10.8419 6.71181 10.718Z" fill="#7255A7"/>
</svg>
