<svg width="14" height="13" viewBox="0 0 14 13" fill="none" xmlns="http://www.w3.org/2000/svg">
<path d="M12.25 7.37329H7.875V11.7483C7.875 11.9804 7.78281 12.2029 7.61872 12.367C7.45462 12.5311 7.23206 12.6233 7 12.6233C6.76794 12.6233 6.54538 12.5311 6.38128 12.367C6.21719 12.2029 6.125 11.9804 6.125 11.7483V7.37329H1.75C1.51794 7.37329 1.29538 7.2811 1.13128 7.11701C0.967187 6.95292 0.875 6.73036 0.875 6.49829C0.875 6.26623 0.967187 6.04367 1.13128 5.87957C1.29538 5.71548 1.51794 5.62329 1.75 5.62329H6.125V1.24829C6.125 1.01623 6.21719 0.793667 6.38128 0.629572C6.54538 0.465478 6.76794 0.373291 7 0.373291C7.23206 0.373291 7.45462 0.465478 7.61872 0.629572C7.78281 0.793667 7.875 1.01623 7.875 1.24829V5.62329H12.25C12.4821 5.62329 12.7046 5.71548 12.8687 5.87957C13.0328 6.04367 13.125 6.26623 13.125 6.49829C13.125 6.73036 13.0328 6.95292 12.8687 7.11701C12.7046 7.2811 12.4821 7.37329 12.25 7.37329Z" fill="white"/>
</svg>
