<svg width="31" height="47" viewBox="0 0 31 47" fill="none" xmlns="http://www.w3.org/2000/svg">
<path d="M7 12.5C7 14.433 5.433 16 3.5 16C1.567 16 0 14.433 0 12.5C0 10.567 1.567 9 3.5 9C5.433 9 7 10.567 7 12.5Z" fill="#FDFDFD" fill-opacity="0.3"/>
<path d="M7 24.5C7 26.433 5.433 28 3.5 28C1.567 28 0 26.433 0 24.5C0 22.567 1.567 21 3.5 21C5.433 21 7 22.567 7 24.5Z" fill="#FDFDFD" fill-opacity="0.3"/>
<path d="M19 19.5C19 21.433 17.433 23 15.5 23C13.567 23 12 21.433 12 19.5C12 17.567 13.567 16 15.5 16C17.433 16 19 17.567 19 19.5Z" fill="#FDFDFD" fill-opacity="0.3"/>
<path d="M19 31.5C19 33.433 17.433 35 15.5 35C13.567 35 12 33.433 12 31.5C12 29.567 13.567 28 15.5 28C17.433 28 19 29.567 19 31.5Z" fill="#FDFDFD" fill-opacity="0.3"/>
<path d="M19 43.5C19 45.433 17.433 47 15.5 47C13.567 47 12 45.433 12 43.5C12 41.567 13.567 40 15.5 40C17.433 40 19 41.567 19 43.5Z" fill="#FDFDFD" fill-opacity="0.3"/>
<path d="M31 3.5C31 5.433 29.433 7 27.5 7C25.567 7 24 5.433 24 3.5C24 1.567 25.567 0 27.5 0C29.433 0 31 1.567 31 3.5Z" fill="#FDFDFD" fill-opacity="0.3"/>
<path d="M31 15.5C31 17.433 29.433 19 27.5 19C25.567 19 24 17.433 24 15.5C24 13.567 25.567 12 27.5 12C29.433 12 31 13.567 31 15.5Z" fill="#FDFDFD" fill-opacity="0.3"/>
<path d="M31 27.5C31 29.433 29.433 31 27.5 31C25.567 31 24 29.433 24 27.5C24 25.567 25.567 24 27.5 24C29.433 24 31 25.567 31 27.5Z" fill="#FDFDFD" fill-opacity="0.3"/>
</svg>
