<svg width="21" height="22" viewBox="0 0 21 22" fill="none" xmlns="http://www.w3.org/2000/svg">
<path d="M1 5H3.03704M3.03704 5H19.3333M3.03704 5L3.03704 19C3.03704 19.5304 3.25165 20.0391 3.63367 20.4142C4.01569 20.7893 4.53382 21 5.07407 21H15.2593C15.7995 21 16.3176 20.7893 16.6997 20.4142C17.0817 20.0391 17.2963 19.5304 17.2963 19V5M6.09259 5V3C6.09259 2.46957 6.30721 1.96086 6.68923 1.58579C7.07125 1.21071 7.58937 1 8.12963 1H12.2037C12.744 1 13.2621 1.21071 13.6441 1.58579C14.0261 1.96086 14.2407 2.46957 14.2407 3V5M8.12963 10V16M12.2037 10V16" stroke="#959595" stroke-width="2" stroke-linecap="round" stroke-linejoin="round"/>
</svg>
