<svg width="17" height="17" viewBox="0 0 17 17" fill="none" xmlns="http://www.w3.org/2000/svg">
<path d="M8.5 12.075C8.36667 12.075 8.24167 12.0543 8.125 12.013C8.00833 11.9717 7.9 11.9007 7.8 11.8L4.2 8.2C4 8 3.904 7.76667 3.912 7.5C3.92 7.23334 4.016 7 4.2 6.8C4.4 6.6 4.63767 6.496 4.913 6.488C5.18833 6.48 5.42567 6.57567 5.625 6.775L7.5 8.65V1.5C7.5 1.21667 7.596 0.979337 7.788 0.788004C7.98 0.59667 8.21733 0.50067 8.5 0.500003C8.78267 0.499337 9.02033 0.595337 9.213 0.788004C9.40567 0.98067 9.50133 1.218 9.5 1.5V8.65L11.375 6.775C11.575 6.575 11.8127 6.479 12.088 6.487C12.3633 6.495 12.6007 6.59934 12.8 6.8C12.9833 7 13.0793 7.23334 13.088 7.5C13.0967 7.76667 13.0007 8 12.8 8.2L9.2 11.8C9.1 11.9 8.99167 11.971 8.875 12.013C8.75833 12.055 8.63333 12.0757 8.5 12.075ZM2.5 16.5C1.95 16.5 1.47933 16.3043 1.088 15.913C0.696666 15.5217 0.500667 15.0507 0.5 14.5V12.5C0.5 12.2167 0.596 11.9793 0.788 11.788C0.98 11.5967 1.21733 11.5007 1.5 11.5C1.78267 11.4993 2.02033 11.5953 2.213 11.788C2.40567 11.9807 2.50133 12.218 2.5 12.5V14.5H14.5V12.5C14.5 12.2167 14.596 11.9793 14.788 11.788C14.98 11.5967 15.2173 11.5007 15.5 11.5C15.7827 11.4993 16.0203 11.5953 16.213 11.788C16.4057 11.9807 16.5013 12.218 16.5 12.5V14.5C16.5 15.05 16.3043 15.521 15.913 15.913C15.5217 16.305 15.0507 16.5007 14.5 16.5H2.5Z" fill="white"/>
</svg>
