<svg width="16" height="15" viewBox="0 0 16 15" fill="none" xmlns="http://www.w3.org/2000/svg">
<path d="M1.77778 13.3333H3.04444L11.7333 5.1875L10.4667 4L1.77778 12.1458V13.3333ZM0 15V11.4583L11.7333 0.479167C11.9111 0.326389 12.1076 0.208333 12.3227 0.125C12.5378 0.0416667 12.7636 0 13 0C13.2364 0 13.4661 0.0416667 13.6889 0.125C13.9117 0.208333 14.1043 0.333333 14.2667 0.5L15.4889 1.66667C15.6667 1.81944 15.7964 2 15.8782 2.20833C15.96 2.41667 16.0006 2.625 16 2.83333C16 3.05556 15.9594 3.2675 15.8782 3.46917C15.797 3.67083 15.6673 3.85472 15.4889 4.02083L3.77778 15H0ZM11.0889 4.60417L10.4667 4L11.7333 5.1875L11.0889 4.60417Z" fill="#959595"/>
</svg>
