<svg width="22" height="21" viewBox="0 0 22 21" fill="none" xmlns="http://www.w3.org/2000/svg">
<path d="M11 7.875C10.3038 7.875 9.63613 8.15156 9.14384 8.64384C8.65156 9.13613 8.375 9.80381 8.375 10.5C8.375 11.1962 8.65156 11.8639 9.14384 12.3562C9.63613 12.8484 10.3038 13.125 11 13.125C11.6962 13.125 12.3639 12.8484 12.8562 12.3562C13.3484 11.8639 13.625 11.1962 13.625 10.5C13.625 9.80381 13.3484 9.13613 12.8562 8.64384C12.3639 8.15156 11.6962 7.875 11 7.875ZM11 14.875C9.83968 14.875 8.72688 14.4141 7.90641 13.5936C7.08594 12.7731 6.625 11.6603 6.625 10.5C6.625 9.33968 7.08594 8.22688 7.90641 7.40641C8.72688 6.58594 9.83968 6.125 11 6.125C12.1603 6.125 13.2731 6.58594 14.0936 7.40641C14.9141 8.22688 15.375 9.33968 15.375 10.5C15.375 11.6603 14.9141 12.7731 14.0936 13.5936C13.2731 14.4141 12.1603 14.875 11 14.875ZM11 3.9375C6.625 3.9375 2.88875 6.65875 1.375 10.5C2.88875 14.3412 6.625 17.0625 11 17.0625C15.375 17.0625 19.1112 14.3412 20.625 10.5C19.1112 6.65875 15.375 3.9375 11 3.9375Z" fill="white"/>
</svg>
