<svg width="23" height="23" viewBox="0 0 23 23" fill="none" xmlns="http://www.w3.org/2000/svg">
<g clip-path="url(#clip0_37_78)">
<path d="M9.58328 12.4582C9.99484 13.0084 10.5199 13.4637 11.1229 13.7931C11.7259 14.1226 12.3926 14.3185 13.078 14.3675C13.7633 14.4166 14.4512 14.3177 15.095 14.0776C15.7388 13.8374 16.3233 13.4617 16.8091 12.9757L19.6841 10.1007C20.557 9.197 21.0399 7.98661 21.029 6.73025C21.0181 5.4739 20.5142 4.27209 19.6257 3.38367C18.7373 2.49526 17.5355 1.99132 16.2792 1.98041C15.0228 1.96949 13.8124 2.45246 12.9087 3.3253L11.2604 4.96405M13.4166 10.5416C13.0051 9.99135 12.48 9.53609 11.877 9.20665C11.274 8.87722 10.6073 8.68132 9.92191 8.63223C9.23656 8.58315 8.54868 8.68203 7.90491 8.92218C7.26114 9.16232 6.67655 9.53811 6.19078 10.0241L3.31578 12.8991C2.44294 13.8028 1.95997 15.0132 1.97088 16.2695C1.9818 17.5259 2.48574 18.7277 3.37415 19.6161C4.26256 20.5045 5.46437 21.0084 6.72073 21.0194C7.97709 21.0303 9.18748 20.5473 10.0912 19.6745L11.7299 18.0357" stroke="#959595" stroke-width="3" stroke-linecap="round" stroke-linejoin="round"/>
</g>
<defs>
<clipPath id="clip0_37_78">
<rect width="23" height="23" fill="white"/>
</clipPath>
</defs>
</svg>
