<svg width="34" height="34" viewBox="0 0 34 34" fill="none" xmlns="http://www.w3.org/2000/svg">
<path d="M30.3271 27.9829L24.0789 21.7348C25.5832 19.7322 26.3953 17.2946 26.3925 14.79C26.3925 8.39242 21.1876 3.1875 14.79 3.1875C8.39242 3.1875 3.1875 8.39242 3.1875 14.79C3.1875 21.1876 8.39242 26.3925 14.79 26.3925C17.2946 26.3953 19.7322 25.5832 21.7348 24.0789L27.9829 30.3271C28.2992 30.6098 28.7117 30.7607 29.1358 30.7489C29.5599 30.737 29.9633 30.5632 30.2633 30.2633C30.5632 29.9633 30.737 29.5599 30.7489 29.1358C30.7607 28.7117 30.6098 28.2992 30.3271 27.9829ZM6.5025 14.79C6.5025 13.1509 6.98855 11.5486 7.8992 10.1857C8.80984 8.82284 10.1042 7.76061 11.6185 7.13335C13.1329 6.50609 14.7992 6.34197 16.4068 6.66174C18.0144 6.98152 19.4911 7.77082 20.6501 8.92985C21.8092 10.0889 22.5985 11.5656 22.9183 13.1732C23.238 14.7808 23.0739 16.4471 22.4467 17.9615C21.8194 19.4758 20.7572 20.7702 19.3943 21.6808C18.0314 22.5914 16.4291 23.0775 14.79 23.0775C12.5928 23.0749 10.4864 22.2009 8.93276 20.6472C7.37913 19.0936 6.50514 16.9872 6.5025 14.79Z" fill="#7255A7"/>
</svg>
