<svg width="27" height="32" viewBox="0 0 27 32" fill="none" xmlns="http://www.w3.org/2000/svg">
<g clip-path="url(#clip0_15_791)">
<path d="M13.5 16C15.546 16 17.5081 15.1835 18.9548 13.7301C20.4015 12.2767 21.2143 10.3054 21.2143 8.25C21.2143 6.19457 20.4015 4.22333 18.9548 2.76992C17.5081 1.31652 15.546 0.5 13.5 0.5C11.454 0.5 9.49189 1.31652 8.04518 2.76992C6.59847 4.22333 5.78571 6.19457 5.78571 8.25C5.78571 10.3054 6.59847 12.2767 8.04518 13.7301C9.49189 15.1835 11.454 16 13.5 16ZM10.7458 18.9062C4.80938 18.9062 0 23.7379 0 29.7018C0 30.6947 0.801563 31.5 1.78996 31.5H25.21C26.1984 31.5 27 30.6947 27 29.7018C27 23.7379 22.1906 18.9062 16.2542 18.9062H10.7458Z" fill="#7255A7"/>
</g>
<defs>
<clipPath id="clip0_15_791">
<rect width="27" height="31" fill="white" transform="translate(0 0.5)"/>
</clipPath>
</defs>
</svg>
